<?xml version="1.0" encoding="utf-8"?>
<!-- Generator: Adobe Illustrator 15.0.0, SVG Export Plug-In . SVG Version: 6.00 Build 0)  -->
<!DOCTYPE svg PUBLIC "-//W3C//DTD SVG 1.1//EN" "http://www.w3.org/Graphics/SVG/1.1/DTD/svg11.dtd">
<svg version="1.1" id="Warstwa_1" xmlns="http://www.w3.org/2000/svg" xmlns:xlink="http://www.w3.org/1999/xlink" x="0px" y="0px"
	 width="692.854px" height="142.544px" viewBox="-8.302 15.197 692.854 142.544"
	 enable-background="new -8.302 15.197 692.854 142.544" xml:space="preserve">
<g id="Rectangle">
	<path fill="#0C226E" d="M40.308,58.885h44.734c2.931,0,5.308,2.375,5.308,5.308l0,0c0,2.931-2.376,5.308-5.308,5.308H40.308
		C37.377,69.5,35,67.124,35,64.192l0,0C35,61.262,37.376,58.885,40.308,58.885z"/>
</g>
<g id="Rectangle_1_">
	<path fill="#0C226E" d="M58.757,103.192h26.285c2.931,0,5.308,2.376,5.308,5.308l0,0c0,2.932-2.376,5.309-5.308,5.309H58.757
		c-2.931,0-5.308-2.377-5.308-5.309l0,0C53.45,105.568,55.826,103.192,58.757,103.192z"/>
</g>
<g id="Rectangle_2_">
	<g>
		<defs>
			<path id="SVGID_1_" d="M40.308,81.038h26.284c2.932,0,5.308,2.376,5.308,5.308l0,0c0,2.932-2.376,5.309-5.308,5.309H40.308
				c-2.931,0-5.308-2.377-5.308-5.309l0,0C35,83.414,37.376,81.038,40.308,81.038z"/>
		</defs>
		<clipPath id="SVGID_2_">
			<use xlink:href="#SVGID_1_"  overflow="visible"/>
		</clipPath>
		<rect x="70.867" y="81.038" clip-path="url(#SVGID_2_)" fill="#97E6F5" width="1.033" height="10.616"/>
		<rect x="69.833" y="81.038" clip-path="url(#SVGID_2_)" fill="#96E6F5" width="1.034" height="10.616"/>
		<rect x="68.8" y="81.038" clip-path="url(#SVGID_2_)" fill="#95E5F5" width="1.033" height="10.616"/>
		<rect x="67.766" y="81.038" clip-path="url(#SVGID_2_)" fill="#94E5F4" width="1.034" height="10.616"/>
		<rect x="66.733" y="81.038" clip-path="url(#SVGID_2_)" fill="#93E5F4" width="1.033" height="10.616"/>
		<rect x="65.699" y="81.038" clip-path="url(#SVGID_2_)" fill="#92E4F4" width="1.034" height="10.616"/>
		<rect x="64.666" y="81.038" clip-path="url(#SVGID_2_)" fill="#91E4F4" width="1.033" height="10.616"/>
		<rect x="63.633" y="81.038" clip-path="url(#SVGID_2_)" fill="#90E4F4" width="1.033" height="10.616"/>
		<rect x="62.599" y="81.038" clip-path="url(#SVGID_2_)" fill="#8FE3F4" width="1.034" height="10.616"/>
		<rect x="61.566" y="81.038" clip-path="url(#SVGID_2_)" fill="#8EE3F3" width="1.033" height="10.616"/>
		<rect x="60.532" y="81.038" clip-path="url(#SVGID_2_)" fill="#8DE3F3" width="1.034" height="10.616"/>
		<rect x="59.499" y="81.038" clip-path="url(#SVGID_2_)" fill="#8CE2F3" width="1.033" height="10.616"/>
		<rect x="58.465" y="81.038" clip-path="url(#SVGID_2_)" fill="#8BE2F3" width="1.034" height="10.616"/>
		<rect x="57.432" y="81.038" clip-path="url(#SVGID_2_)" fill="#8AE2F3" width="1.033" height="10.616"/>
		<rect x="56.399" y="81.038" clip-path="url(#SVGID_2_)" fill="#89E1F3" width="1.033" height="10.616"/>
		<rect x="55.365" y="81.038" clip-path="url(#SVGID_2_)" fill="#88E1F2" width="1.034" height="10.616"/>
		<rect x="54.332" y="81.038" clip-path="url(#SVGID_2_)" fill="#87E1F2" width="1.033" height="10.616"/>
		<rect x="53.298" y="81.038" clip-path="url(#SVGID_2_)" fill="#86E1F2" width="1.034" height="10.616"/>
		<rect x="52.265" y="81.038" clip-path="url(#SVGID_2_)" fill="#84E0F2" width="1.033" height="10.616"/>
		<rect x="51.231" y="81.038" clip-path="url(#SVGID_2_)" fill="#83E0F2" width="1.034" height="10.616"/>
		<rect x="50.198" y="81.038" clip-path="url(#SVGID_2_)" fill="#82E0F1" width="1.033" height="10.616"/>
		<rect x="49.165" y="81.038" clip-path="url(#SVGID_2_)" fill="#81DFF1" width="1.033" height="10.616"/>
		<rect x="48.131" y="81.038" clip-path="url(#SVGID_2_)" fill="#80DFF1" width="1.034" height="10.616"/>
		<rect x="47.098" y="81.038" clip-path="url(#SVGID_2_)" fill="#7FDFF1" width="1.033" height="10.616"/>
		<rect x="46.064" y="81.038" clip-path="url(#SVGID_2_)" fill="#7EDEF1" width="1.034" height="10.616"/>
		<rect x="45.031" y="81.038" clip-path="url(#SVGID_2_)" fill="#7DDEF1" width="1.033" height="10.616"/>
		<rect x="43.998" y="81.038" clip-path="url(#SVGID_2_)" fill="#7CDEF0" width="1.034" height="10.616"/>
		<rect x="42.964" y="81.038" clip-path="url(#SVGID_2_)" fill="#7BDDF0" width="1.033" height="10.616"/>
		<rect x="41.931" y="81.038" clip-path="url(#SVGID_2_)" fill="#7ADDF0" width="1.033" height="10.616"/>
		<rect x="40.897" y="81.038" clip-path="url(#SVGID_2_)" fill="#79DDF0" width="1.034" height="10.616"/>
		<rect x="39.864" y="81.038" clip-path="url(#SVGID_2_)" fill="#78DCF0" width="1.033" height="10.616"/>
		<rect x="38.831" y="81.038" clip-path="url(#SVGID_2_)" fill="#77DCF0" width="1.034" height="10.616"/>
		<rect x="37.797" y="81.038" clip-path="url(#SVGID_2_)" fill="#76DCEF" width="1.033" height="10.616"/>
		<rect x="36.764" y="81.038" clip-path="url(#SVGID_2_)" fill="#75DBEF" width="1.034" height="10.616"/>
		<rect x="35.73" y="81.038" clip-path="url(#SVGID_2_)" fill="#74DBEF" width="1.033" height="10.616"/>
		<rect x="35" y="81.038" clip-path="url(#SVGID_2_)" fill="#74DBEF" width="0.73" height="10.616"/>
	</g>
</g>
<g id="Oval">
	<ellipse fill="#ED3947" cx="40.304" cy="108.5" rx="5.308" ry="5.308"/>
</g>
<g>
	<path fill="#0C226E" d="M140.415,96.09c2.618,3.493,6.188,3.493,9.044,0l13.17-16.67v29.372c0,3.494,2.221,5.479,5.077,5.479
		c2.539,0,4.76-1.984,4.76-5.479V64.1c0-5.479-6.426-6.748-9.044-3.493l-18.088,24.45L127.88,61.48
		c-1.349-1.51-2.698-2.858-4.998-2.858c-1.27,0-4.76,1.349-4.76,5.478v44.693c0,3.494,2.221,5.479,4.76,5.479
		c2.856,0,5.712-1.984,5.712-5.479V79.422L140.415,96.09z"/>
</g>
<g>
	<path fill="#0C226E" d="M225.745,58.62h-18.326c-3.332,0-5.395,2.858-5.395,5.478v44.693h-0.001c0,3.494,2.776,5.479,5.395,5.479
		c2.856,0,5.078-1.983,5.078-5.479V98.313h13.249c10.313,0,19.596-6.985,19.596-19.528C245.341,65.527,236.059,58.62,225.745,58.62z
		 M225.744,88.389h-13.249V68.622h13.249v0.001c5.315,0,9.52,4.604,9.52,10.161C235.264,83.706,231.059,88.389,225.744,88.389z"/>
</g>
<g>
	<path fill="#0C226E" d="M305.52,93.073c16.818-6.748,12.692-33.738-7.459-33.738h-21.103c-2.618,0-4.76,2.064-4.76,4.843v45.09
		c0,6.986,10.551,6.748,10.551-0.158V94.74h0.001h12.456l11.979,17.146c4.76,6.033,13.01,0.16,8.885-5.953L305.52,93.073z
		 M298.063,85.611H282.75V68.94h15.313C309.01,68.94,308.375,85.611,298.063,85.611z"/>
</g>
<g>
	<path fill="#0C226E" d="M378.947,103.869H354.75V91.963h19.993c7.061,0,7.061-10.399,0-10.399H354.75V69.655h22.849
		c7.142,0,7.3-10.32,0-10.32h-28.479c-2.776,0-4.919,2.064-4.919,4.923v45.09c0,2.777,2.143,4.922,4.919,4.922h29.828
		C386.722,114.27,386.167,103.869,378.947,103.869z"/>
</g>
<g>
	<path fill="#0C226E" d="M420.641,72.036c1.666-8.256,14.994-6.51,20.865-2.778c4.76,3.492,10.472-3.414,5.077-7.779
		c-10.948-8.415-34.193-5.637-36.019,9.764c-2.457,22.546,30.546,15.48,31.577,27.229c-1.188,11.272-17.929,7.938-24.435,3.494
		c-2.697-2.224-4.998-1.51-7.061,0.555c-1.429,2.145-1.509,5.637,1.109,7.779c10.948,9.051,40.145,8.573,40.698-11.59
		C453.01,77.592,418.499,85.055,420.641,72.036z"/>
</g>
<g>
	<path fill="#0C226E" d="M489.15,72.036c1.666-8.256,14.994-6.51,20.864-2.778c4.761,3.492,10.473-3.414,5.077-7.779
		c-10.947-8.415-34.192-5.637-36.018,9.764c-2.457,22.546,30.546,15.48,31.578,27.229c-1.19,11.272-17.931,7.938-24.437,3.494
		c-2.697-2.224-4.998-1.51-7.061,0.555c-1.429,2.145-1.508,5.637,1.109,7.779c10.948,9.051,40.145,8.573,40.698-11.59
		C521.52,77.592,487.008,85.055,489.15,72.036z"/>
</g>
<g>
	<path fill="#0C226E" d="M549.094,64.098v45.33c0,6.746,10.474,6.588,10.474,0v-45.33C559.567,57.35,549.094,57.588,549.094,64.098z
		"/>
</g>
<g>
	<path fill="#0C226E" d="M641.086,106.648l-22.372-44.535c-1.983-4.366-7.695-4.207-9.838,0l-22.769,44.535
		c-1.588,3.334,0,6.191,2.537,7.621c2.858,0.555,5.793,0,7.063-2.699l3.412-6.986h29.273l3.49,6.986
		C634.739,117.762,644.339,112.84,641.086,106.648z M604.037,94.105l9.759-19.608l8.965,19.608H604.037z"/>
</g>
</svg>
